<mxfile host="65bd71144e">
    <diagram id="SZXNvtV3E4CguaLO8lRz" name="Page-1">
        <mxGraphModel dx="1506" dy="870" grid="1" gridSize="10" guides="1" tooltips="1" connect="1" arrows="1" fold="1" page="1" pageScale="1" pageWidth="1169" pageHeight="827" math="0" shadow="0">
            <root>
                <mxCell id="0"/>
                <mxCell id="1" parent="0"/>
                <mxCell id="25" value="" style="group;movable=0;resizable=0;rotatable=0;deletable=0;editable=0;connectable=0;" vertex="1" connectable="0" parent="1">
                    <mxGeometry x="410" y="40" width="130" height="1600" as="geometry"/>
                </mxCell>
                <mxCell id="4" value="fdating.com" style="swimlane;movable=0;resizable=0;rotatable=0;deletable=0;editable=0;connectable=0;" parent="25" vertex="1">
                    <mxGeometry width="130" height="80" as="geometry"/>
                </mxCell>
                <mxCell id="18" value="" style="endArrow=none;dashed=1;html=1;entryX=0.5;entryY=1;entryDx=0;entryDy=0;" edge="1" parent="25" target="4">
                    <mxGeometry width="50" height="50" relative="1" as="geometry">
                        <mxPoint x="65" y="1599.9999999999998" as="sourcePoint"/>
                        <mxPoint x="-140.00000000000023" y="184.61538461538484" as="targetPoint"/>
                    </mxGeometry>
                </mxCell>
                <mxCell id="27" value="" style="group;movable=0;resizable=0;rotatable=0;deletable=0;editable=0;connectable=0;" vertex="1" connectable="0" parent="1">
                    <mxGeometry x="1000" y="40" width="120" height="1600" as="geometry"/>
                </mxCell>
                <mxCell id="15" value="Saver" style="ellipse;whiteSpace=wrap;html=1;" vertex="1" parent="27">
                    <mxGeometry width="120" height="80.50314465408802" as="geometry"/>
                </mxCell>
                <mxCell id="20" value="" style="endArrow=none;dashed=1;html=1;entryX=0.5;entryY=1;entryDx=0;entryDy=0;" edge="1" parent="27" target="15">
                    <mxGeometry width="50" height="50" relative="1" as="geometry">
                        <mxPoint x="60" y="1590" as="sourcePoint"/>
                        <mxPoint x="-130" y="90.56603773584916" as="targetPoint"/>
                    </mxGeometry>
                </mxCell>
                <mxCell id="26" value="" style="group;movable=0;resizable=0;rotatable=0;deletable=0;editable=0;connectable=0;" vertex="1" connectable="0" parent="27">
                    <mxGeometry x="-240" width="120" height="1590" as="geometry"/>
                </mxCell>
                <mxCell id="14" value="Downloader" style="ellipse;whiteSpace=wrap;html=1;" vertex="1" parent="26">
                    <mxGeometry width="120" height="80" as="geometry"/>
                </mxCell>
                <mxCell id="19" value="" style="endArrow=none;dashed=1;html=1;entryX=0.5;entryY=1;entryDx=0;entryDy=0;" edge="1" parent="26" target="14">
                    <mxGeometry width="50" height="50" relative="1" as="geometry">
                        <mxPoint x="60" y="1590" as="sourcePoint"/>
                        <mxPoint x="-155.00000000000023" y="185.8441558441561" as="targetPoint"/>
                    </mxGeometry>
                </mxCell>
                <mxCell id="28" value="" style="group;movable=0;resizable=0;rotatable=0;deletable=0;editable=0;connectable=0;" vertex="1" connectable="0" parent="1">
                    <mxGeometry x="200" y="40" width="120" height="1600" as="geometry"/>
                </mxCell>
                <mxCell id="11" value="Master" style="ellipse;whiteSpace=wrap;html=1;" vertex="1" parent="28">
                    <mxGeometry width="120" height="80" as="geometry"/>
                </mxCell>
                <mxCell id="16" value="" style="endArrow=none;dashed=1;html=1;entryX=0.5;entryY=1;entryDx=0;entryDy=0;" edge="1" parent="28" target="11">
                    <mxGeometry width="50" height="50" relative="1" as="geometry">
                        <mxPoint x="60" y="1599.9999999999998" as="sourcePoint"/>
                        <mxPoint x="100" y="311.68831168831167" as="targetPoint"/>
                    </mxGeometry>
                </mxCell>
                <mxCell id="29" value="" style="group;movable=0;resizable=0;rotatable=0;deletable=0;editable=0;connectable=0;" vertex="1" connectable="0" parent="1">
                    <mxGeometry x="50" y="40" width="30" height="1600" as="geometry"/>
                </mxCell>
                <mxCell id="5" value="User" style="shape=umlActor;verticalLabelPosition=bottom;verticalAlign=top;html=1;outlineConnect=0;movable=0;resizable=0;rotatable=0;deletable=0;editable=0;connectable=0;" parent="29" vertex="1">
                    <mxGeometry width="30" height="60" as="geometry"/>
                </mxCell>
                <mxCell id="17" value="" style="endArrow=none;dashed=1;html=1;entryX=0.5;entryY=0.5;entryDx=0;entryDy=0;entryPerimeter=0;" edge="1" parent="29" target="5">
                    <mxGeometry width="50" height="50" relative="1" as="geometry">
                        <mxPoint x="15" y="1600" as="sourcePoint"/>
                        <mxPoint x="219.99999999999977" y="187.01298701298725" as="targetPoint"/>
                    </mxGeometry>
                </mxCell>
                <mxCell id="30" value="" style="group;movable=0;resizable=0;rotatable=0;deletable=0;editable=0;connectable=0;" vertex="1" connectable="0" parent="1">
                    <mxGeometry x="600" y="54.5" width="50" height="1565.5" as="geometry"/>
                </mxCell>
                <mxCell id="2" value="" style="aspect=fixed;html=1;points=[];align=center;image;fontSize=12;image=img/lib/mscae/Cache_Redis_Product.svg;" parent="30" vertex="1">
                    <mxGeometry width="50" height="42" as="geometry"/>
                </mxCell>
                <mxCell id="21" value="" style="endArrow=none;dashed=1;html=1;entryX=0.533;entryY=1.062;entryDx=0;entryDy=0;entryPerimeter=0;" edge="1" parent="30" target="2">
                    <mxGeometry width="50" height="50" relative="1" as="geometry">
                        <mxPoint x="27" y="1565.5" as="sourcePoint"/>
                        <mxPoint x="-170" y="148.00332889480717" as="targetPoint"/>
                    </mxGeometry>
                </mxCell>
                <mxCell id="23" value="&lt;span&gt;2. Check if the same &lt;br&gt;filters as last search&lt;/span&gt;" style="rhombus;whiteSpace=wrap;html=1;" vertex="1" parent="1">
                    <mxGeometry x="170" y="220" width="180" height="120" as="geometry"/>
                </mxCell>
                <mxCell id="31" value="" style="group" vertex="1" connectable="0" parent="1">
                    <mxGeometry x="70" y="150" width="190" height="70" as="geometry"/>
                </mxCell>
                <mxCell id="7" value="&lt;font color=&quot;#000000&quot;&gt;gender: num&lt;br&gt;startAge: num&lt;br&gt;endAge: num&lt;br&gt;photo: boolean&lt;br&gt;&lt;/font&gt;" style="rounded=1;whiteSpace=wrap;html=1;fillColor=#ffe6cc;strokeColor=#d79b00;" parent="31" vertex="1">
                    <mxGeometry x="30" y="10" width="120" height="60" as="geometry"/>
                </mxCell>
                <mxCell id="22" value="1. Set filter params" style="shape=flexArrow;endArrow=classic;html=1;" edge="1" parent="31">
                    <mxGeometry width="50" height="50" relative="1" as="geometry">
                        <mxPoint as="sourcePoint"/>
                        <mxPoint x="190" as="targetPoint"/>
                    </mxGeometry>
                </mxCell>
                <mxCell id="32" value="2.N.2 Search with filters" style="shape=flexArrow;endArrow=classic;html=1;" edge="1" parent="1">
                    <mxGeometry width="50" height="50" relative="1" as="geometry">
                        <mxPoint x="260" y="460" as="sourcePoint"/>
                        <mxPoint x="480" y="460" as="targetPoint"/>
                        <Array as="points">
                            <mxPoint x="390" y="460"/>
                        </Array>
                    </mxGeometry>
                </mxCell>
                <mxCell id="34" value="2.N.3 Exract data about results" style="shape=process;whiteSpace=wrap;html=1;backgroundOutline=1;" vertex="1" parent="1">
                    <mxGeometry x="200" y="485" width="120" height="60" as="geometry"/>
                </mxCell>
                <mxCell id="40" value="" style="group" vertex="1" connectable="0" parent="1">
                    <mxGeometry x="260" y="570" width="370" height="70" as="geometry"/>
                </mxCell>
                <mxCell id="38" value="2.N.4 Save results in DB" style="shape=flexArrow;endArrow=classic;html=1;" edge="1" parent="40">
                    <mxGeometry width="50" height="50" relative="1" as="geometry">
                        <mxPoint as="sourcePoint"/>
                        <mxPoint x="370" as="targetPoint"/>
                        <Array as="points"/>
                    </mxGeometry>
                </mxCell>
                <mxCell id="36" value="&lt;font color=&quot;#000000&quot;&gt;currentIndex: num&lt;br&gt;lastIndex: num&lt;br&gt;candidateCount: num&lt;br&gt;&lt;/font&gt;" style="rounded=1;whiteSpace=wrap;html=1;fillColor=#ffe6cc;strokeColor=#d79b00;" vertex="1" parent="40">
                    <mxGeometry x="120" y="10" width="120" height="60" as="geometry"/>
                </mxCell>
                <mxCell id="41" value="3. Iterate through pages and extract link to profiles" style="shape=process;whiteSpace=wrap;html=1;backgroundOutline=1;" vertex="1" parent="1">
                    <mxGeometry x="190" y="650" width="140" height="60" as="geometry"/>
                </mxCell>
                <mxCell id="46" value="" style="group" vertex="1" connectable="0" parent="1">
                    <mxGeometry x="389" y="740" width="120" height="30" as="geometry"/>
                </mxCell>
                <mxCell id="42" value="3.1&amp;nbsp; Update currentIndex" style="shape=flexArrow;endArrow=classic;html=1;" edge="1" parent="46">
                    <mxGeometry width="50" height="50" relative="1" as="geometry">
                        <mxPoint x="-129" as="sourcePoint"/>
                        <mxPoint x="241" as="targetPoint"/>
                        <Array as="points">
                            <mxPoint x="11"/>
                        </Array>
                    </mxGeometry>
                </mxCell>
                <mxCell id="44" value="&lt;font color=&quot;#000000&quot;&gt;currentIndex: num&lt;br&gt;&lt;/font&gt;" style="rounded=1;whiteSpace=wrap;html=1;fillColor=#ffe6cc;strokeColor=#d79b00;" vertex="1" parent="46">
                    <mxGeometry y="10" width="120" height="20" as="geometry"/>
                </mxCell>
                <mxCell id="48" value="" style="group" vertex="1" connectable="0" parent="1">
                    <mxGeometry x="387" y="790" width="120" height="80" as="geometry"/>
                </mxCell>
                <mxCell id="45" value="3.2&amp;nbsp; Save links in DB" style="shape=flexArrow;endArrow=classic;html=1;" edge="1" parent="48">
                    <mxGeometry width="50" height="50" relative="1" as="geometry">
                        <mxPoint x="-127" as="sourcePoint"/>
                        <mxPoint x="243" as="targetPoint"/>
                        <Array as="points">
                            <mxPoint x="13"/>
                        </Array>
                    </mxGeometry>
                </mxCell>
                <mxCell id="47" value="&lt;font color=&quot;#000000&quot;&gt;currentIndex: {&lt;br&gt;data:&amp;nbsp;&lt;/font&gt;&lt;span style=&quot;color: rgb(0 , 0 , 0)&quot;&gt;string[],&lt;br&gt;&lt;/span&gt;&lt;font color=&quot;#000000&quot;&gt;processed: boolean&lt;br&gt;}&lt;br&gt;&lt;/font&gt;" style="rounded=1;whiteSpace=wrap;html=1;fillColor=#ffe6cc;strokeColor=#d79b00;" vertex="1" parent="48">
                    <mxGeometry y="7.199999999999999" width="120" height="72.8" as="geometry"/>
                </mxCell>
                <mxCell id="52" value="" style="group" vertex="1" connectable="0" parent="1">
                    <mxGeometry x="260" y="360" width="370" height="70" as="geometry"/>
                </mxCell>
                <mxCell id="53" value="&lt;font color=&quot;#000000&quot;&gt;gender: num&lt;br&gt;startAge: num&lt;br&gt;endAge: num&lt;br&gt;photo: boolean&lt;br&gt;&lt;/font&gt;" style="rounded=1;whiteSpace=wrap;html=1;fillColor=#ffe6cc;strokeColor=#d79b00;" vertex="1" parent="52">
                    <mxGeometry x="130" y="10" width="110" height="60" as="geometry"/>
                </mxCell>
                <mxCell id="54" value="2.N.1 Save filters in DB" style="shape=flexArrow;endArrow=classic;html=1;" edge="1" parent="52">
                    <mxGeometry width="50" height="50" relative="1" as="geometry">
                        <mxPoint as="sourcePoint"/>
                        <mxPoint x="369.99999999999994" as="targetPoint"/>
                    </mxGeometry>
                </mxCell>
            </root>
        </mxGraphModel>
    </diagram>
</mxfile>